<svg viewBox="0 0 24 24" class="SVG-sc-wlnxuy-0 dPgEOp"><path fill-rule="evenodd" clip-rule="evenodd" d="M11.1056 3.44721L12 2H15.5C19.0899 2 22 4.91015 22 8.5C22 10.2697 21.2915 12.1106 20.1702 13.5134C19.0507 14.9142 17.4141 16 15.5 16H9.5C6.01318 16 3.32266 12.8661 3.02701 9.59466C2.51984 9.38147 2.02008 9.14404 1.52941 8.88235L2.47059 7.11765C5.48861 8.72725 8.89373 9.30457 12.1894 8.84961C12.303 8.09097 12.3334 7.45488 12.2568 6.80434C12.1504 5.89947 11.8273 4.89062 11.1056 3.44721ZM9.5 14C7.54203 14 5.75683 12.3719 5.18791 10.3451C9.5915 11.5668 14.3515 11.0792 18.4706 8.88235L17.5294 7.11765C16.4783 7.67825 15.3802 8.11363 14.2561 8.42379C14.3132 7.80838 14.3175 7.20253 14.2432 6.57066C14.1469 5.75278 13.9234 4.92545 13.552 4H15.5C17.9853 4 20 6.01472 20 8.5C20 9.76786 19.4773 11.177 18.6079 12.2648C17.7369 13.3546 16.6235 14 15.5 14H9.5Z" fill="currentColor"></path><path fill-rule="evenodd" clip-rule="evenodd" d="M8 23C9.65685 23 11 21.6569 11 20C11 18.3431 9.65685 17 8 17C6.34315 17 5 18.3431 5 20C5 21.6569 6.34315 23 8 23ZM8 21C8.55228 21 9 20.5523 9 20C9 19.4477 8.55228 19 8 19C7.44772 19 7 19.4477 7 20C7 20.5523 7.44772 21 8 21Z" fill="currentColor"></path><path fill-rule="evenodd" clip-rule="evenodd" d="M16 23C17.6569 23 19 21.6569 19 20C19 18.3431 17.6569 17 16 17C14.3431 17 13 18.3431 13 20C13 21.6569 14.3431 23 16 23ZM16 21C16.5523 21 17 20.5523 17 20C17 19.4477 16.5523 19 16 19C15.4477 19 15 19.4477 15 20C15 20.5523 15.4477 21 16 21Z" fill="currentColor"></path></svg>