<svg viewBox="0 0 24 24" class="SVG-sc-wlnxuy-0 dPgEOp"><path fill-rule="evenodd" clip-rule="evenodd" d="M18 2H4V11H2V17H10V15H4V13H10V11H6V4H16V6H18V2Z" fill="currentColor"></path><path d="M16 17C16 16.4477 16.4477 16 17 16C17.5523 16 18 16.4477 18 17C18 17.5523 17.5523 18 17 18C16.4477 18 16 17.5523 16 17Z" fill="currentColor"></path><path fill-rule="evenodd" clip-rule="evenodd" d="M12 7.99997H22V20.6572L21.3966 20.9179C20.3661 21.3632 18.8321 22 17 22C15.1679 22 13.6339 21.3632 12.6034 20.9179L12 20.6572V7.99997ZM14 9.99997V19.3346C14.8781 19.6863 15.8794 20 17 20C18.1206 20 19.1219 19.6863 20 19.3346V9.99997H14Z" fill="currentColor"></path></svg>