<svg viewBox="0 0 24 24" class="SVG-sc-wlnxuy-0 dPgEOp"><path fill-rule="evenodd" clip-rule="evenodd" d="M9.30278 2H6.51937L2 7.64922V9.41421L4.58579 12H6V20.2447L6.50674 20.532C7.62913 21.1685 9.5593 22 12 22C14.4407 22 16.3709 21.1685 17.4933 20.532L18 20.2447V12H19.4142L22 9.41421V7.64922L17.4806 2H14.6972L14.4453 2.16795C13.5759 2.74753 12.7657 3 12 3C11.2343 3 10.4241 2.74753 9.5547 2.16795L9.30278 2ZM18 10H18.5858L20 8.58579V8.35078L16.5194 4H15.2926C14.2407 4.6471 13.1393 5 12 5C10.8607 5 9.75931 4.6471 8.70737 4H7.48063L4 8.35078V8.58579L5.41421 10H6V8.58579L7.29289 7.29289L8.70711 8.70711L8 9.41421V19.059C8.95307 19.5239 10.3366 20 12 20C13.6634 20 15.0469 19.5239 16 19.059V9.41421L15.2929 8.70711L16.7071 7.29289L18 8.58579V10Z" fill="currentColor"></path></svg>