<svg viewBox="0 0 24 24" class="SVG-sc-wlnxuy-0 dPgEOp"><path fill-rule="evenodd" clip-rule="evenodd" d="M16 10H8V16H16V10ZM10 14V12H14V14H10Z" fill="currentColor"></path><path fill-rule="evenodd" clip-rule="evenodd" d="M10 1H17V3H14V5.18716C15.1045 5.39483 16.0458 5.74706 16.7808 6.09718C17.3553 6.37079 17.8093 6.64566 18.124 6.85561C18.2816 6.96072 18.4049 7.04999 18.4916 7.11532L19 7.5319L19 22L5 22V7.5319L5.5084 7.11532C5.59512 7.04999 5.71843 6.96072 5.87601 6.85561C6.19073 6.64566 6.64473 6.37079 7.21915 6.09718C7.95422 5.74706 8.89547 5.39483 10 5.18716V1ZM17 8.51C16.7527 8.34585 16.3871 8.12494 15.9208 7.90282C14.9677 7.44885 13.6156 7 12 7C10.3844 7 9.03228 7.44885 8.0792 7.90282C7.61286 8.12494 7.24732 8.34585 7 8.51L7 20L17 20L17 8.51Z" fill="currentColor"></path></svg>