<svg viewBox="0 0 24 24" class="SVG-sc-wlnxuy-0 dPgEOp"><path fill-rule="evenodd" clip-rule="evenodd" d="M4 3H20V10H22V22H2V10H4V3ZM18 5V10H14V15.7698C13.3943 15.91 12.7236 16 12 16C11.2764 16 10.6057 15.91 10 15.7698V10H6V5H18ZM8 15.059V12H4V20H20V12H16V15.059C16.4744 14.8276 16.9477 14.5618 17.3613 14.2306L18.6399 15.7684C18.0795 16.2338 17.4363 16.5906 16.7808 16.9028C15.6345 17.4489 13.9866 18 12 18C10.0134 18 8.36553 17.4489 7.21915 16.9028C6.56221 16.5899 5.93358 16.217 5.36005 15.7684C5.4786 15.6261 6.64107 14.2325 6.63874 14.2306C7.05227 14.5619 7.52564 14.8276 8 15.059Z" fill="currentColor"></path></svg>