<svg viewBox="0 0 24 24" class="SVG-sc-wlnxuy-0 dPgEOp"><path d="M14 14V8H12V12H9L9 14L14 14Z" fill="currentColor"></path><path fill-rule="evenodd" clip-rule="evenodd" d="M8 1H16V5.07026C18.3912 6.4535 20 9.03887 20 12C20 14.9611 18.3912 17.5465 16 18.9297V23H8V18.9297C5.60879 17.5465 4 14.9611 4 12C4 9.03887 5.60879 6.4535 8 5.07026V1ZM14 3V4.25203C13.3608 4.08751 12.6906 4 12 4C11.3094 4 10.6392 4.08751 10 4.25203V3H14ZM6 12C6 8.68629 8.68629 6 12 6C15.3137 6 18 8.68629 18 12C18 15.3137 15.3137 18 12 18C8.68629 18 6 15.3137 6 12ZM14 19.748C13.3608 19.9125 12.6906 20 12 20C11.3094 20 10.6392 19.9125 10 19.748V21H14V19.748Z" fill="currentColor"></path></svg>