<svg viewBox="0 0 24 24" class="SVG-sc-wlnxuy-0 dPgEOp"><path d="M8 13.5C8 14.3284 7.32843 15 6.5 15C5.67157 15 5 14.3284 5 13.5C5 12.6716 5.67157 12 6.5 12C7.32843 12 8 12.6716 8 13.5Z" fill="currentColor"></path><path d="M17.5 15C18.3284 15 19 14.3284 19 13.5C19 12.6716 18.3284 12 17.5 12C16.6716 12 16 12.6716 16 13.5C16 14.3284 16.6716 15 17.5 15Z" fill="currentColor"></path><path fill-rule="evenodd" clip-rule="evenodd" d="M18.3567 3H5.64332L3.16546 8.42033L1 10.5858V22H7V18.7919C10.2651 19.736 13.7349 19.736 17 18.7919V22H23V10.5858L20.8345 8.42033L18.3567 3ZM3.52942 17.3824C4.01137 17.6394 4.5021 17.873 5 18.0833V20H3V11.4142L4.53504 9.87917C9.27535 12.0403 14.7247 12.0403 19.465 9.87917L21 11.4142V20H19V18.0833C19.4979 17.873 19.9886 17.6394 20.4706 17.3824L19.5294 15.6176C14.8235 18.1274 9.17648 18.1274 4.4706 15.6176L3.52942 17.3824ZM18.4986 8.12092L17.0719 5H6.92811L5.50141 8.12091C9.63707 9.95969 14.3629 9.95969 18.4986 8.12092Z" fill="currentColor"></path></svg>