<svg viewBox="0 0 24 24" class="SVG-sc-wlnxuy-0 dPgEOp"><path fill-rule="evenodd" clip-rule="evenodd" d="M3 12H5V19H9V13H15V19H19V12H21V21H13V15H11V21H3V12Z" fill="currentColor"></path><path fill-rule="evenodd" clip-rule="evenodd" d="M22.4451 14.8319C22.4451 14.8319 22.4453 14.832 23 14C23.5547 13.1679 23.5548 13.168 23.5548 13.168L23.5536 13.1672L23.5477 13.1633L23.5221 13.146C23.4991 13.1304 23.4641 13.1067 23.4182 13.0752C23.3263 13.0123 23.1907 12.9184 23.0189 12.7969C22.675 12.5536 22.1867 12.2001 21.6137 11.7619C20.4642 10.8829 18.9894 9.67514 17.6571 8.34289C16.3426 7.02841 15.1442 5.44581 14.2665 4.17537C13.83 3.54342 13.4776 2.99571 13.235 2.60717C13.1138 2.41302 13.0202 2.25895 12.9575 2.15438C12.9262 2.1021 12.9026 2.06223 12.8871 2.03592L12.87 2.00681L12.8661 2.00017L12.8654 1.99896V1.99896H11.1349V1.99896L11.1339 2.00017L11.13 2.00681L11.1129 2.03592C11.0974 2.06223 11.0738 2.1021 11.0425 2.15438C10.9798 2.25895 10.8862 2.41302 10.765 2.60717C10.5224 2.99571 10.17 3.54342 9.73349 4.17537C8.85584 5.44581 7.65738 7.02841 6.34289 8.34289C5.01065 9.67514 3.5358 10.8829 2.3863 11.7619C1.81329 12.2001 1.32502 12.5536 0.981129 12.7969C0.809258 12.9184 0.673662 13.0123 0.58182 13.0752C0.535904 13.1067 0.500944 13.1304 0.477875 13.146L0.452312 13.1633L0.445274 13.168C0.445274 13.168 0.445299 13.1679 1 14C1.5547 14.832 1.55489 14.8319 1.55489 14.8319L1.55836 14.8296L1.56679 14.824L1.59759 14.8032C1.6242 14.7852 1.66283 14.759 1.71252 14.7249C1.81189 14.6568 1.95559 14.5573 2.13606 14.4297C2.49685 14.1745 3.00546 13.8062 3.6012 13.3506C4.78921 12.4421 6.33935 11.1749 7.75711 9.75711C9.19262 8.32159 10.4692 6.62919 11.379 5.31213C11.6094 4.97866 11.8175 4.66744 12 4.38827C12.1825 4.66744 12.3906 4.97866 12.621 5.31213C13.5308 6.62919 14.8074 8.32159 16.2429 9.75711C17.6606 11.1749 19.2108 12.4421 20.3988 13.3506C20.9945 13.8062 21.5031 14.1745 21.8639 14.4297C22.0444 14.5573 22.1881 14.6568 22.2875 14.7249C22.3372 14.759 22.3758 14.7852 22.4024 14.8032L22.4332 14.824L22.4416 14.8296L22.4451 14.8319Z" fill="currentColor"></path></svg>