<svg viewBox="0 0 24 24" class="SVG-sc-wlnxuy-0 dPgEOp"><path fill-rule="evenodd" clip-rule="evenodd" d="M20 2H8V5H4V13.4681C4.04084 13.5022 4.0815 13.5365 4.12217 13.5708C4.24899 13.6778 4.37586 13.7848 4.5084 13.8847C4.59512 13.95 4.71843 14.0393 4.87601 14.1444C5.19073 14.3543 5.64473 14.6292 6.21915 14.9028C7.36553 15.4489 9.01337 16 11 16V22H17V12H11V14C9.38444 14 8.03228 13.5511 7.0792 13.0972C6.61286 12.8751 6.24732 12.6542 6 12.49V7H8V10H20V2ZM10 8V4H18V8H10ZM13 20V14H15V20H13Z" fill="currentColor"></path></svg>