<svg viewBox="0 0 24 24" class="SVG-sc-wlnxuy-0 dPgEOp"><path fill-rule="evenodd" clip-rule="evenodd" d="M14.5 4L13.5561 5.33035L14.4905 8H10V5H6V7H8V8.76393L7.29703 10.1699C6.88339 10.0591 6.44859 10 6 10C3.23858 10 1 12.2386 1 15C1 17.7614 3.23858 20 6 20C8.76142 20 11 17.7614 11 15C11 13.4029 10.2512 11.9806 9.08541 11.0652L9.61803 10H15.1905L15.4375 10.7057C13.9775 11.5787 13 13.1752 13 15C13 17.7614 15.2386 20 18 20C20.7614 20 23 17.7614 23 15C23 12.2386 20.7614 10 18 10C17.7712 10 17.5459 10.0154 17.3253 10.0451L15.9095 6H19V4H14.5ZM16.1217 12.6606L17.0485 15.3085C17.1785 15.7098 17.5554 16 18 16C18.5523 16 19 15.5523 19 15C19 14.876 18.9774 14.7573 18.9362 14.6477L18.0095 12C19.662 12.0051 21 13.3463 21 15C21 16.6569 19.6569 18 18 18C16.3431 18 15 16.6569 15 15C15 14.0541 15.4378 13.2105 16.1217 12.6606ZM6.90413 15.4278C6.74379 15.7661 6.39921 16 6 16C5.44772 16 5 15.5523 5 15C5 14.8321 5.0414 14.6738 5.11454 14.5348L6.37063 12.0227C6.24919 12.0077 6.12549 12 6 12C4.34315 12 3 13.3431 3 15C3 16.6569 4.34315 18 6 18C7.65685 18 9 16.6569 9 15C9 14.1911 8.67985 13.457 8.15934 12.9174L6.90413 15.4278Z" fill="currentColor"></path></svg>