<svg viewBox="0 0 24 24" class="SVG-sc-wlnxuy-0 dPgEOp"><path fill-rule="evenodd" clip-rule="evenodd" d="M18 10H15.2808L16.4823 14.8061C16.6964 14.6855 16.8748 14.5735 17.0141 14.4806C17.1324 14.4017 17.2493 14.32 17.3605 14.2312C17.3605 14.2312 18.0105 14.5368 19 15V22H5V15L6.63874 14.2306C6.91085 14.4486 7.209 14.639 7.51685 14.8095L8.71921 10H6V8H8.53513C8.19479 7.41165 8 6.72857 8 6C8 3.79086 9.79086 2 12 2C14.2091 2 16 3.79086 16 6C16 6.72857 15.8052 7.41165 15.4649 8H18V10ZM10 6C10 4.89543 10.8954 4 12 4C13.1046 4 14 4.89543 14 6C14 7.10457 13.1046 8 12 8C10.8954 8 10 7.10457 10 6ZM9.37996 15.6032C10.1361 15.8347 11.0195 16 12 16C12.9805 16 13.8639 15.8347 14.62 15.6032L13.2192 10H10.7808L9.37996 15.6032ZM7 20V16.7955C7.07096 16.8312 7.14403 16.867 7.21915 16.9028C8.36553 17.4489 10.0134 18 12 18C13.9866 18 15.6345 17.4489 16.7808 16.9028C16.856 16.867 16.929 16.8312 17 16.7955V20H7Z" fill="currentColor"></path></svg>